<?xml version="1.0" encoding="iso-8859-1"?>
<!-- Generator: Adobe Illustrator 17.0.0, SVG Export Plug-In . SVG Version: 6.00 Build 0)  -->
<!DOCTYPE svg PUBLIC "-//W3C//DTD SVG 1.1//EN" "http://www.w3.org/Graphics/SVG/1.1/DTD/svg11.dtd">
<svg version="1.1" xmlns="http://www.w3.org/2000/svg" xmlns:xlink="http://www.w3.org/1999/xlink" x="0px" y="0px"
	 width="517.819px" height="311.123px" viewBox="0 0 517.819 311.123" style="enable-background:new 0 0 517.819 311.123;"
	 xml:space="preserve">
<g id="Layer_2" style="display:none;">
	<g style="display:inline;">
		<path style="fill:#FFFFFF;" d="M92.113,298.5v-63.482h7.065l27.358,49.839v-49.839h6.592V298.5h-7.065l-27.329-49.884V298.5
			H92.113z M73.416,298.5v-63.482h6.887V298.5H73.416z"/>
		<g>
			<path style="fill:#FFFFFF;" d="M83.118,298.28l1.548-63.261l0.187-7.624l7.26,0.178l7.065,0.173l4.48,0.11l1.896,3.664
				l26.139,50.508l-11.039,2.831l1.22-49.839l0.117-4.774l4.546,0.111l6.592,0.161l4.609,0.113l-0.107,4.389l-1.554,63.481
				l-0.074,3.018l-2.874-0.07l-7.065-0.173l-1.711-0.042l-0.723-1.4l-26.108-50.552l2.595-0.664L98.897,298.5l-0.004,0.166
				l-0.158-0.004l-6.621-0.162L83.118,298.28z M99.873,247.824l0.075,0.128l28.549,49.215l-2.433-1.441l7.065-0.173l-2.948,2.948
				l-1.554-63.481l4.501,4.501l-6.592,0.161l4.662-4.662l1.22,49.839l0.558,22.782l-11.596-19.952l-28.578-49.169l6.376,3.773
				l-7.065,0.173l7.446-7.446L99.873,247.824z"/>
			<path style="fill:#FFFFFF;" d="M64.452,297.927l4.023-62.908l0.335-5.235l4.606,0.295l6.887,0.44l4.768,0.305l-0.268,4.195
				l-4.06,63.481l-0.03,0.467l-0.411-0.026l-6.887-0.44L64.452,297.927z M78.531,237.746l1.772,1.772l-6.887,0.44l4.94-4.94
				L78.531,237.746z"/>
		</g>
	</g>
	<g style="display:inline;">
		<path style="fill:#FFFFFF;" d="M251.046,272.428h17.619l-5.41-17.574c-1.671-5.395-2.897-9.785-3.681-13.17
			c-0.665,4.08-1.596,8.115-2.823,12.135L251.046,272.428z M236.015,298.5l20.013-63.482h7.405l21.298,63.482h-7.878l-6.059-19.229
			h-21.742l-5.72,19.229H236.015z M196.092,263.042h14.81c3.223,0,5.676-0.399,7.361-1.183c1.67-0.769,3-1.996,3.976-3.68
			c0.99-1.671,1.478-3.621,1.478-5.839c0-3.207-0.946-5.72-2.823-7.553c-1.863-1.833-4.656-2.749-8.351-2.749h-16.451V263.042z
			 M189.205,298.5v-63.482h23.073c4.833,0,8.38,0.591,10.686,1.774c2.292,1.182,4.168,3.162,5.646,5.912
			c1.479,2.764,2.203,5.956,2.203,9.592c0,4.789-1.242,8.676-3.739,11.648c-2.498,2.971-6.134,4.863-10.893,5.676
			c1.936,1.153,3.414,2.32,4.419,3.503c2.054,2.424,3.857,5.129,5.409,8.099l9.09,17.279h-8.661l-6.917-13.214
			c-2.69-5.158-4.715-8.646-6.09-10.436c-1.375-1.788-2.705-2.985-3.976-3.605c-1.286-0.621-3.089-0.931-5.395-0.931h-7.967V298.5
			H189.205z M140.74,298.5v-7.789l26.678-40.661c1.847-2.838,3.651-5.351,5.409-7.538h-29.087v-7.493h37.276v7.493l-29.191,44.031
			l-3.148,4.464h33.211v7.494H140.74z"/>
		<g>
			<path style="fill:#FFFFFF;" d="M254.753,263.837l13.912,1.534l-6.745,9.133l-3.027-15.843l-0.378-1.98l-0.2-1.05l-0.178-0.992
				l-0.714-3.968l-0.357-1.985l-0.311-2.078l-0.611-4.131l6.906-0.227l-1.231,3.975l-0.615,1.973
				c-0.22,0.653-0.489,1.293-0.731,1.937l-1.487,3.839c-0.24,0.652-0.523,1.239-0.783,1.862l-0.795,1.843L254.753,263.837z
				 M249.301,281.62l4.742-24.972l0.375-1.973c0.116-0.653,0.271-1.324,0.354-1.963l0.582-3.871c0.09-0.643,0.207-1.279,0.275-1.924
				l0.158-1.943l0.314-3.857l1.221-15.01l5.684,14.783l1.396,3.63l0.692,1.803l0.78,1.859l1.562,3.718l0.39,0.93l0.195,0.465
				l0.181,0.404l0.801,1.85l6.406,14.803l3.465,8.007l-10.21,1.126L249.301,281.62z"/>
			<path style="fill:#FFFFFF;" d="M226.594,298.111l0.837-2.317l22.633-62.656l1.644-4.551l4.32,0.178l7.404,0.306l4.516,0.186
				l1.123,3.87l18.678,64.36l1.269,4.374l-4.288-0.177l-7.878-0.325l-2.211-0.091l-0.516-1.909l-5.266-19.479l1.933,1.418
				l-21.742-0.897l1.083-0.808l-6.514,18.993l-0.077,0.225l-0.212-0.009l-7.316-0.302L226.594,298.111z M250.857,278.067
				l19.936-0.823l1.401-0.058l0.533,1.476l6.853,18.979l-2.727-2l7.878-0.325l-3.019,4.197l-23.918-62.602l5.639,4.056l-7.404,0.306
				l5.964-4.373L250.857,278.067z"/>
			<path style="fill:#FFFFFF;" d="M196.997,254.134l7.554,0.767l4.229,0.429l2.115,0.215c0.062,0-0.485,0.01-0.245,0.006
				l0.017,0.001l0.033,0.002l0.066,0.005l0.133,0.009l0.265,0.018l0.53,0.036l1.06,0.073l0.657,0.027l0.597,0.046l0.561-0.019
				c0.173-0.005,0.435,0.01,0.491-0.01c0.101-0.009,0.209-0.006,0.328,0.008l0.022,0.003l0.011,0.001
				c-0.197,0.102,0.449-0.226-0.44,0.228l0.015-0.007l0.122-0.053l0.244-0.105l0.488-0.211l0.244-0.105l0.122-0.053
				c0.036-0.016,0-0.004,0-0.004c-0.028,0.009-0.051,0.026-0.067,0.05c-0.028,0.031-0.059,0.186,0.054,0.073
				c0.082-0.055,0.183-0.09,0.29-0.141c0.087-0.092,0.184-0.179,0.294-0.263l0.085-0.063l0.011-0.008l0.006-0.004
				c-0.081,0.153,0.189-0.347-0.18,0.341l0.035-0.056l0.071-0.112l0.283-0.45l0.283-0.45c0.032-0.054,0.127-0.196,0.108-0.178
				l0.011-0.032c0.02-0.041,0.062-0.075,0.129-0.113c0.062-0.097,0.118-0.317,0.19-0.471c0.18-0.312,0.195-0.777,0.326-1.179
				l0.01-0.039c-0.003-0.196,0.007,0.257,0.006,0.204l0.001-0.017l0.002-0.033l0.008-0.133l0.017-0.265l0.034-0.53l0.018-0.324
				l0.024-0.214c0.025-0.317-0.001-0.757-0.04-1.08c-0.042-0.345-0.121-0.649-0.215-0.955l-0.184-0.442l-0.129-0.21l-0.062-0.111
				l-0.03-0.057l-0.007-0.014c-0.044-0.042,0.377,0.345,0.193,0.175l-0.011-0.012l-0.046-0.048l-0.364-0.387
				c-0.105-0.112-0.293-0.314-0.27-0.281c-0.021-0.019-0.038-0.044-0.053-0.077c-0.007-0.03-0.021-0.072-0.117-0.131
				c-0.27-0.231-0.611-0.453-1.011-0.652c-0.8-0.403-1.849-0.696-3.001-0.851l-0.44-0.068l-0.529-0.054l-1.057-0.107l-2.115-0.215
				l-4.229-0.429l-8.458-0.859l2.132-2.132L196.997,254.134z M196.997,271.951l-0.904-8.908l-2.132-21.003l-0.192-1.896l2.324-0.236
				l8.458-0.858l4.229-0.429l2.115-0.215l1.057-0.107l0.529-0.054l0.616-0.038c1.663-0.114,3.444-0.065,5.34,0.368
				c0.945,0.218,1.914,0.532,2.877,0.985c0.226,0.09,0.504,0.243,0.787,0.415c0.277,0.165,0.553,0.336,0.824,0.514
				c0.328,0.214,0.388,0.266,0.553,0.38l0.434,0.306l0.054,0.038l0.014,0.01c-0.176-0.163,0.254,0.232,0.217,0.198l0.037,0.034
				l0.149,0.138l0.296,0.278l0.586,0.569c0.358,0.412,0.721,0.832,1.052,1.273c0.641,0.898,1.191,1.861,1.608,2.85
				c0.422,1.009,0.718,1.947,0.947,3.024l0.15,0.836l0.113,0.728l0.074,0.526l0.037,0.263l0.018,0.132l0.005,0.033l0.002,0.016
				l0.005,0.237l0.003,0.093c0.004,0.999,0.101,1.962-0.056,3.026c-0.066,0.536-0.1,1.019-0.216,1.603
				c-0.152,0.632-0.329,1.268-0.529,1.897l-0.154,0.47l-0.109,0.302l-0.187,0.497l-0.187,0.497l-0.047,0.124l-0.023,0.062
				l-0.237,0.439l-0.212,0.375c-0.285,0.499-0.583,0.996-0.892,1.487c-0.354,0.481-0.744,0.953-1.137,1.419
				c-0.331,0.441-0.96,0.985-1.532,1.462c-0.293,0.242-0.593,0.477-0.898,0.704l-0.538,0.383l-0.436,0.304l-0.218,0.152
				l-0.109,0.076l-0.014,0.01l-0.47,0.24l-0.051,0.024l-0.102,0.048c-0.543,0.256-1.097,0.501-1.657,0.734
				c-0.594,0.265-1.039,0.366-1.55,0.526c-0.498,0.145-1.003,0.296-1.506,0.422l-1.505,0.283l-0.759,0.13l-0.687,0.107l-1.053,0.142
				l-0.526,0.071l-0.263,0.035l-0.132,0.018l-0.066,0.009l-0.033,0.004l-0.016,0.002c0.229-0.003-0.33,0.007-0.279,0.007
				l-2.115,0.215l-4.229,0.429L196.997,271.951z"/>
			<path style="fill:#FFFFFF;" d="M180.215,298.195l2.143-63.177l0.24-7.071l6.607,0.224l19.315,0.655l2.414,0.082l2.513,0.1
				l0.603,0.03l0.706,0.051l1.438,0.119c0.933,0.107,1.866,0.218,2.839,0.398c1.938,0.363,3.984,0.845,6.26,1.987l0.209,0.103
				l0.052,0.026l0.455,0.26l0.016,0.011l0.062,0.042l0.25,0.17l0.5,0.339l0.5,0.34l0.25,0.17l0.383,0.313
				c0.523,0.437,1.035,0.892,1.53,1.359c0.234,0.229,0.52,0.481,0.698,0.699l0.521,0.65l1.018,1.315
				c0.332,0.441,0.557,0.897,0.835,1.348l0.781,1.36l0.192,0.384l0.014,0.035l0.029,0.07l0.057,0.14l0.114,0.279l0.229,0.559
				l0.458,1.125l0.497,1.661c0.156,0.555,0.308,1.116,0.443,1.668l0.215,1.492l0.198,1.49c0.036,0.49,0.036,0.973,0.052,1.459
				l0.03,1.454l0.006,0.363l-0.004,0.213l-0.003,0.038l-0.005,0.075l-0.01,0.151l-0.04,0.603c-0.025,0.693-0.169,1.857-0.314,2.898
				c-0.201,1.009-0.361,1.969-0.685,2.96c-0.563,1.959-1.43,3.92-2.636,5.681c-0.277,0.454-0.609,0.872-0.945,1.286l-0.501,0.621
				l-0.063,0.077l-0.217,0.248l-0.107,0.107l-0.213,0.214l-0.426,0.428c-0.142,0.142-0.26,0.27-0.516,0.489
				c-0.445,0.392-0.899,0.776-1.357,1.148c-1.699,1.262-3.534,2.201-5.389,2.898c-1.86,0.695-3.725,1.078-5.564,1.374l1.451-7.796
				c0.701,0.489,1.394,0.899,2.089,1.466c0.692,0.507,1.383,1.126,2.059,1.762c0.338,0.343,0.672,0.723,1,1.088l0.123,0.139
				l0.139,0.164l0.041,0.055l0.163,0.219l0.326,0.438c0.44,0.602,0.855,1.114,1.332,1.851c0.448,0.687,0.953,1.384,1.342,2.065
				c0.397,0.684,0.808,1.36,1.188,2.05l1.081,2.096l0.954,1.966l7.61,15.739l2.236,4.623l-4.927-0.167l-8.661-0.294l-1.754-0.06
				l-0.68-1.413l-4.977-10.346l-2.495-5.151c-0.42-0.861-0.84-1.725-1.273-2.542c-0.437-0.822-0.843-1.678-1.305-2.475
				c-0.459-0.791-0.893-1.654-1.382-2.365c-0.231-0.347-0.495-0.802-0.697-1.064l-0.876-1.119l-0.811-0.868
				c-0.304-0.24-0.594-0.56-0.903-0.75l-0.46-0.304l-0.057-0.039l-0.029-0.02c0.053,0.023-0.129-0.058,0.117,0.05l-0.01-0.004
				l-0.021-0.009l-0.165-0.07l-0.33-0.14c-0.207-0.078-0.47-0.22-0.631-0.246l-0.521-0.134c-0.312-0.116-0.799-0.153-1.207-0.23
				c-0.417-0.087-0.874-0.09-1.315-0.129c-0.868-0.077-1.888-0.077-2.825-0.119l-5.737-0.195l1.19-1.19l-0.956,28.186l-0.008,0.241
				l-0.226-0.008l-6.888-0.234L180.215,298.195z M197.207,269.087l4.623-0.157c0.976-0.022,1.869-0.088,2.912-0.074
				c0.513,0.01,1.017-0.018,1.546,0.047c0.537,0.061,1.015,0.055,1.626,0.203l0.876,0.19c0.31,0.064,0.475,0.152,0.72,0.227
				l0.339,0.117l0.17,0.059l0.021,0.007l0.147,0.064l0.048,0.026l0.097,0.052l0.773,0.429c0.519,0.289,0.914,0.654,1.375,0.987
				c0.422,0.366,0.818,0.763,1.224,1.152l0.968,1.078c0.411,0.472,0.643,0.839,0.973,1.266c0.647,0.829,1.129,1.652,1.687,2.479
				c0.554,0.824,1.028,1.668,1.546,2.503c0.52,0.841,0.993,1.669,1.47,2.497l2.856,5l5.667,9.985l-2.433-1.473l8.661-0.294
				l-2.691,4.456l-8.659-15.187l-1.085-1.897l-1.042-1.722c-0.362-0.562-0.749-1.105-1.12-1.658
				c-0.371-0.562-0.767-1.013-1.143-1.526c-0.335-0.474-0.874-1.065-1.332-1.609l-0.355-0.415l-0.178-0.208l-0.044-0.052
				c-0.019-0.023,0.145,0.177,0.074,0.09l-0.004-0.004l-0.008-0.007l-0.016-0.015l-0.066-0.059l-0.517-0.483
				c-0.418-0.325-0.828-0.659-1.339-0.977c-0.453-0.333-1.044-0.622-1.556-0.938l-8.688-5.373l10.139-2.423
				c1.318-0.315,2.601-0.673,3.727-1.194c1.122-0.521,2.128-1.147,2.971-1.867c0.146-0.159,0.298-0.306,0.457-0.444
				c0.059-0.034,0.207-0.21,0.338-0.362l0.396-0.456l0.198-0.228l0.099-0.114l0.012-0.014c-0.31,0.35-0.082,0.091-0.149,0.166
				l0.014-0.022l0.028-0.043l0.228-0.341c0.157-0.223,0.317-0.443,0.434-0.693c0.552-0.938,0.933-1.992,1.171-3.147
				c0.153-0.55,0.195-1.195,0.28-1.767c0.018-0.561,0.087-0.995,0.067-1.913l0-0.604l0-0.151l0-0.076l0-0.038l0-0.019
				c-0.006,0.338-0.003,0.085-0.004,0.157l-0.025-0.24l-0.094-0.957c-0.033-0.317-0.047-0.64-0.091-0.95l-0.197-0.892l-0.179-0.89
				c-0.087-0.221-0.17-0.431-0.241-0.647c-0.072-0.215-0.135-0.432-0.191-0.653l-0.527-1.079l-0.266-0.542l-0.133-0.271
				l-0.067-0.136l-0.033-0.068l-0.017-0.034c0.333,0.678,0.088,0.182,0.16,0.33l-0.008-0.011l-0.487-0.694
				c-0.164-0.22-0.3-0.494-0.477-0.675c-0.177-0.181-0.348-0.364-0.514-0.551l-0.245-0.283c-0.08-0.091-0.124-0.078-0.18-0.127
				c-0.105-0.07-0.192-0.152-0.268-0.252c-0.026-0.027-0.023-0.046-0.07-0.084l-0.261-0.152l-0.521-0.305l-0.521-0.305l-0.261-0.152
				l-0.065-0.038l-0.016-0.01c-0.395-0.225,0.519,0.295,0.423,0.241l-0.017-0.005l-0.066-0.021c-0.634-0.249-1.76-0.504-2.996-0.629
				c-0.618-0.072-1.288-0.102-1.959-0.135l-0.972-0.012l-0.499-0.005l-0.604,0.011l-2.316,0.066l-2.414,0.082l-19.315,0.655
				l6.847-6.847L197.207,269.087z"/>
			<path style="fill:#FFFFFF;" d="M131.749,298.218l0.235-7.507l0.09-2.888l1.345-1.916l16.644-23.713l8.322-11.856l2.08-2.964
				l1.12-1.594l1.067-1.463l1.067-1.463l0.533-0.731l0.622-0.79l2.544-3.171l5.409,11.291l-29.087-0.912l-6.212-0.195l0.183-5.835
				l0.235-7.493l0.187-5.971l5.608,0.176l37.276,1.168l4.767,0.149l-0.14,4.477l-0.235,7.493l-0.046,1.46l-0.686,0.967
				l-16.866,23.787l-8.433,11.893l-4.216,5.947l-1.054,1.487l-1.141,1.521l-2.193,2.911l-2.096-4.043l33.211,1.041l1.571,0.049
				l-0.046,1.475l-0.235,7.493l-0.042,1.329l-1.248-0.039L140.74,298.5L131.749,298.218z M149.731,298.218l32.157-1.008
				l-1.289,1.289l-0.235-7.493l1.524,1.524l-33.211,1.041l-4.863,0.152l2.766-4.196l2.006-3.043l0.959-1.457l0.959-1.55l3.836-6.199
				l7.672-12.398l15.343-24.796l-0.731,2.427l-0.235-7.493l4.626,4.626l-37.276,1.168l5.795-5.795l0.235,7.493l-6.029-6.029
				l29.087-0.912l13.657-0.428l-8.248,11.719l-1.829,2.598l-0.462,0.659l-0.487,0.763l-0.973,1.527l-0.973,1.527l-0.872,1.427
				l-1.891,3.089l-7.563,12.354l-15.126,24.708l1.435-4.803L149.731,298.218z"/>
		</g>
	</g>
	<g style="display:inline;">
		<polygon style="fill:#FFFFFF;" points="289.962,298.5 289.962,235.019 296.849,235.019 296.849,266.5 322.7,235.019 
			332.056,235.019 310.181,260.736 333.002,298.5 323.912,298.5 305.378,266.368 296.849,276.507 296.849,298.5 		"/>
		<path style="fill:#FFFFFF;" d="M280.969,298.246l1.789-63.227l0.209-7.402l6.995,0.198l6.887,0.195l7.202,0.204l-0.193,6.806
			l-0.891,31.482l-10.847-3.883l26.741-30.75l1.632-1.877l2.206,0.062l9.356,0.265l10.296,0.291l-6.715,7.457l-22.602,25.098
			l0.353-4.365l21.752,38.41l2.216,3.914l-4.355-0.123l-9.09-0.257l-1.357-0.038l-0.585-1.083l-17.625-32.656l1.944,0.172
			l-8.815,9.898l0.192-0.526l-0.622,21.993l-0.006,0.2l-0.189-0.005l-6.888-0.195L280.969,298.246z M298.253,273.426l6.213-7.826
			l1.036-1.305l0.908,1.477l19.443,31.608l-1.941-1.121l9.09-0.257l-2.138,3.79l-23.889-37.118l-1.403-2.179l1.755-2.186
			l21.147-26.336l3.581,7.748l-9.356,0.265l3.838-1.815l-24.96,32.213l-10.359,13.37l-0.488-17.253l-0.891-31.482l7.009,7.009
			l-6.887,0.195l7.204-7.204L298.253,273.426z"/>
	</g>
</g>
<g id="Layer_1">
	<g>
		<polygon style="fill:#0D5229;" points="177.694,23.307 177.693,29.89 145.892,48.515 151.583,84.513 199.336,101.584 
			245.905,123.486 255.48,127.792 390.98,108.602 391.936,59.199 		"/>
		<polygon style="fill:#0D5229;" points="388.22,59.458 388.223,57.813 364.607,52.493 312.702,51.344 		"/>
		<path style="fill:#088040;" d="M92.113,298.5v-63.482h7.065l27.358,49.839v-49.839h6.592V298.5h-7.065l-27.329-49.884V298.5
			H92.113z M73.416,298.5v-63.482h6.887V298.5H73.416z"/>
		<path style="fill:#1F5B9F;" d="M251.046,272.428h17.619l-5.41-17.574c-1.671-5.395-2.897-9.785-3.681-13.17
			c-0.665,4.08-1.596,8.115-2.823,12.135L251.046,272.428z M236.015,298.5l20.013-63.482h7.405l21.298,63.482h-7.878l-6.059-19.229
			h-21.742l-5.72,19.229H236.015z M196.092,263.042h14.81c3.223,0,5.676-0.399,7.361-1.183c1.67-0.769,3-1.996,3.976-3.68
			c0.99-1.671,1.478-3.621,1.478-5.839c0-3.207-0.946-5.72-2.823-7.553c-1.863-1.833-4.656-2.749-8.351-2.749h-16.451V263.042z
			 M189.205,298.5v-63.482h23.073c4.833,0,8.38,0.591,10.686,1.774c2.292,1.182,4.168,3.162,5.646,5.912
			c1.479,2.764,2.203,5.956,2.203,9.592c0,4.789-1.242,8.676-3.739,11.648c-2.498,2.971-6.134,4.863-10.893,5.676
			c1.936,1.153,3.414,2.32,4.419,3.503c2.054,2.424,3.857,5.129,5.409,8.099l9.09,17.279h-8.661l-6.917-13.214
			c-2.69-5.158-4.715-8.646-6.09-10.436c-1.375-1.788-2.705-2.985-3.976-3.605c-1.286-0.621-3.089-0.931-5.395-0.931h-7.967V298.5
			H189.205z M140.74,298.5v-7.789l26.678-40.661c1.847-2.838,3.651-5.351,5.409-7.538h-29.087v-7.493h37.276v7.493l-29.191,44.031
			l-3.148,4.464h33.211v7.494H140.74z"/>
		<polygon style="fill:#759BD1;" points="289.962,298.5 289.962,235.019 296.849,235.019 296.849,266.5 322.7,235.019 
			332.056,235.019 310.181,260.736 333.002,298.5 323.912,298.5 305.378,266.368 296.849,276.507 296.849,298.5 		"/>
		<path style="fill:#1F5B9F;" d="M245.905,89.782c0,0-35.38,11.283-43.873,14.214c-6.886,2.384-11.843-1.022-12.083-5.111
			c-0.056-0.955,0.147-1.952,0.646-2.919c2.63-5.099-6.177-8.807-6.177-8.807c-30.589-10.815-65.509,7.26-65.509,7.26
			s-12.514,8.653,5.254,15.138c5.825,2.131,8.203,4.058,8.751,5.691v0.012c0.117,0.345,0.154,0.666,0.123,0.973v0.006
			c-0.253,2.759-5.475,4.447-5.475,4.447l-65.816,7.106L16.014,46.525c17.305-2.427,34.611-4.86,51.91-7.286
			c35.541-4.988,71.076-9.97,106.611-14.965c1.404,2.457,2.346,4.207,3.159,5.616c0.887,1.54,1.632,2.686,2.673,3.917
			c2.174,2.575,5.327,5.525,6.412,6.43c0.917,0.764,1.416,2.014,1.908,3.098c0.837,1.86-2.057,3.64-3.658,3.19
			c-7.685-2.162-26.857-6.855-28.009,5.887c-0.874,9.632,2.851,18.537,11.005,23.889c6.319,4.145,13.943,6.079,21.364,7.015
			c3.64,0.462,7.723,1.028,11.406,0.597c0,0,14.522-1.699,16.375-8.345c1.854-6.639,5.869-2.161,5.869-2.161L245.905,89.782z"/>
		<polygon style="fill:#07456C;" points="70.861,170.065 24.956,88.773 16.014,46.525 61.747,127.792 		"/>
		<path style="fill:#07456C;" d="M130.962,161.141l-60.101,8.924l-9.115-42.272l65.816-7.106c0,0,5.223-1.688,5.475-4.447
			l1.416,11.554l2.716,22.189C140.04,158.111,130.962,161.141,130.962,161.141"/>
		<path style="fill:#07456C;" d="M245.905,89.782v38.01l-40.191,14.867c-14.663,8.135-15.765-9.57-15.765-9.57V98.885
			c0.24,4.089,5.197,7.495,12.083,5.111C210.525,101.065,245.905,89.782,245.905,89.782"/>
		<path style="fill:#07456C;" d="M190.596,95.965c-0.499,0.967-0.702,1.965-0.646,2.919v28.908c-20.478-13.13-55.495,0-55.495,0
			l-1.416-11.554v-0.006c0.031-0.308-0.007-0.628-0.123-0.973v-0.012c-0.548-1.632-2.926-3.559-8.751-5.691
			c-17.768-6.485-5.254-15.138-5.254-15.138s34.92-18.075,65.509-7.26C184.419,87.159,193.226,90.866,190.596,95.965"/>
		<path style="fill:#759BD1;" d="M507.839,134.998l-153.63,48.609c-4.508-7.223-20.224-27.023-22.947-29.745
			c-2.716-2.716-7.816-9.065-17.164-9.065c-9.349,0-11.048,5.838-11.048,5.838s-5.69,9.435-20.391,7.815
			c-14.7-1.613-28.637-6.879-34.844-21.413c-0.708-1.651-1.294-3.498-1.521-5.352c-0.32-2.599,0.086-5.204,1.897-7.298
			c0.455-0.536,1.004-1.016,1.613-1.447c0.98-0.702,2.113-1.275,3.283-1.736c1.497-0.597,3.055-0.998,4.434-1.226
			c1.041-0.178,2.106-0.246,3.166-0.295c7.292-0.333,14.725,0.381,21.973,1.213c10.618-4.847,3.393-10.198,3.393-10.198
			l-32.967-21.924c0,0,29.401-11.136,40.449-13.426c11.043-2.297,11.387,5.438,11.387,5.438s-3.313,5.863,5.949,10.538
			c7.372,3.72,16.844,3.412,24.911,3.449c8.443,0.037,17.237-0.814,24.788-4.884c4.115-2.217,9.854-5.979,8.234-11.48
			c-1.804-6.121-19.694-9.182-19.694-9.182s-7.736-3.48,0-5.604c6.183-1.7,29.882-3.51,39.113-4.163
			c2.309-0.166,3.713-0.258,3.713-0.258L507.839,134.998z"/>
		<polygon style="fill:#4E75B2;" points="507.839,134.998 493.565,172.22 346.388,223.2 354.209,183.607 		"/>
		<path style="fill:#4E75B2;" d="M354.209,183.607l-7.821,39.593c0,0-6.115-14.614-27.19-37.043c0,0-6.121-5.782-19.036,0
			c0,0-3.824,16.566-27.873,11.892c-24.049-4.674-27.363-22.94-27.363-25.662c0-2.716,1.367-40.702,1.367-40.702
			c0.228,1.854,0.813,3.701,1.521,5.352c6.207,14.534,20.144,19.8,34.844,21.413c14.701,1.619,20.391-7.815,20.391-7.815
			s1.7-5.838,11.048-5.838c9.348,0,14.448,6.35,17.164,9.065C333.985,156.583,349.701,176.383,354.209,183.607"/>
		<path style="fill:#4E75B2;" d="M282.659,120.895c-7.248-0.832-14.681-1.546-21.973-1.213c-1.06,0.049-2.125,0.117-3.166,0.295
			c-1.379,0.228-2.937,0.628-4.434,1.226v-32.43l32.967,21.924C286.052,110.697,293.277,116.049,282.659,120.895"/>
		<path style="fill:#088040;" d="M365.282,78.962c1.447,4.914-3.683,8.283-7.359,10.26c-6.744,3.639-14.602,4.397-22.14,4.36
			c-7.205-0.03-15.674,0.246-22.257-3.08c-8.278-4.175-6.534-10.629-6.534-10.629s-2.328-8.936-12.2-6.886
			c-9.866,2.045-44.989,15.237-44.989,15.237L222.571,71.22c0,0-5.118-3.486-6.885,2.845c-1.762,6.331-14.596,8.283-14.596,8.283
			c-3.51,0.407-7.402,0.548-10.876,0.111c-7.07-0.892-14.337-2.735-20.36-6.688c-7.773-5.099-11.32-13.586-10.495-22.768
			c1.103-12.144,18.796-7.094,26.118-5.032c1.527,0.426,5.598-1.674,5.598-3.621c0-4.009-11.202-13.111-13.383-21.043L308.217,3.446
			l80.006,54.368c0,0-34.926,3.504-41.835,5.4c-6.91,1.897,1.299,7.551,1.299,7.551S363.668,73.499,365.282,78.962"/>
	</g>
</g>
</svg>
